<svg width="99" height="33" viewBox="0 0 99 33" fill="none" xmlns="http://www.w3.org/2000/svg">
<path d="M4.77771 29.8459H3.40308V22.1616H4.77771V29.8459Z" fill="#E0E0E0"/>
<path d="M5.98047 24.3772H7.41237V29.893H5.98047V24.3772ZM8.67246 26.0272C8.67246 25.7915 8.61518 25.603 8.50062 25.5087C8.38607 25.4144 8.21424 25.3201 7.98514 25.3201C7.75603 25.3201 7.58421 25.3672 7.46965 25.5087C7.3551 25.603 7.29782 25.7915 7.29782 26.0272L7.18327 25.3201C7.29782 24.9901 7.52693 24.7072 7.75603 24.5658C7.98514 24.3772 8.32879 24.283 8.61518 24.283C9.07339 24.283 9.41704 24.4244 9.64615 24.6601C9.87525 24.8958 9.98981 25.273 9.98981 25.7444V29.893H8.61518V26.0272H8.67246Z" fill="#E0E0E0"/>
<path d="M10.9062 24.3765H13.8273V25.4608H10.9062V24.3765ZM11.9372 29.5151C11.6508 29.2794 11.5363 28.9023 11.5363 28.4308V22.7737H12.9109V28.3365C12.9109 28.478 12.9682 28.5723 13.0255 28.6665C13.0828 28.7608 13.1973 28.7608 13.3691 28.7608H13.8273V29.8923H13.14C12.6245 29.8923 12.2236 29.7508 11.9372 29.5151Z" fill="#E0E0E0"/>
<path d="M15.6602 29.7515C15.3738 29.6101 15.1447 29.4215 14.9729 29.1387C14.8011 28.8558 14.7438 28.573 14.7438 28.1958V26.1215C14.7438 25.7444 14.8011 25.4144 14.9729 25.1315C15.1447 24.8487 15.3738 24.6601 15.6602 24.5187C15.9466 24.3772 16.2902 24.283 16.7484 24.283C17.1494 24.283 17.5503 24.3301 17.8367 24.4715C18.1231 24.613 18.3522 24.8015 18.524 25.0844C18.6958 25.3672 18.7531 25.6501 18.7531 26.0272V27.5358H15.7747V26.6401H17.3785V26.0272C17.3785 25.7915 17.3212 25.603 17.2067 25.5087C17.0921 25.3672 16.9203 25.3201 16.6912 25.3201C16.4621 25.3201 16.2902 25.3672 16.1757 25.5087C16.0611 25.6501 16.0039 25.8387 16.0039 26.0744V28.243C16.0039 28.4315 16.0611 28.6201 16.1757 28.7144C16.2902 28.8087 16.4621 28.903 16.6912 28.903C16.9203 28.903 17.0348 28.8558 17.1494 28.7615C17.2639 28.6672 17.3212 28.5258 17.3212 28.3844V28.2901H18.6386V28.3372C18.6386 28.8558 18.4667 29.233 18.1231 29.5158C17.7794 29.7987 17.2639 29.9401 16.6339 29.9401C16.3475 29.9401 15.9466 29.8458 15.6602 29.7515Z" fill="#E0E0E0"/>
<path d="M21.3306 28.2902C21.3306 28.4316 21.3878 28.5259 21.4451 28.6202C21.5024 28.7145 21.6169 28.7145 21.7888 28.7145H22.0752V29.8459H21.5024C20.9869 29.8459 20.586 29.7045 20.3569 29.4688C20.0705 29.233 19.9559 28.8559 19.9559 28.3845V22.1616H21.3306V28.2902Z" fill="#E0E0E0"/>
<path d="M24.3662 28.2902C24.3662 28.4316 24.4235 28.5259 24.4808 28.6202C24.538 28.7145 24.6526 28.7145 24.8244 28.7145H25.1108V29.8459H24.538C24.0225 29.8459 23.6216 29.7045 23.3925 29.4688C23.1061 29.233 22.9916 28.8559 22.9916 28.3845V22.1616H24.3662V28.2902Z" fill="#E0E0E0"/>
<path d="M25.9126 22.2087H27.2872V23.3402H25.9126V22.2087ZM25.9126 24.3773H27.2872V29.893H25.9126V24.3773Z" fill="#E0E0E0"/>
<path d="M29.0629 29.7515C28.8338 29.6101 28.7192 29.4687 28.6047 29.233C28.4901 28.9972 28.4329 28.7144 28.4329 28.3844V25.8858C28.4329 25.5558 28.4901 25.273 28.6047 25.0372C28.7192 24.8015 28.8911 24.613 29.0629 24.4715C29.292 24.3301 29.5211 24.283 29.8075 24.283C30.0939 24.283 30.3803 24.3772 30.6094 24.5658C30.8385 24.7544 31.0676 24.9901 31.1821 25.273L31.0676 25.9801C31.0676 25.8387 31.0676 25.7444 31.0103 25.603C30.953 25.5087 30.8957 25.4144 30.7812 25.3672C30.6666 25.3201 30.5521 25.273 30.4375 25.273C30.2084 25.273 30.0939 25.3201 29.9793 25.4615C29.8648 25.5558 29.8075 25.7444 29.8075 25.933V28.243C29.8075 28.4315 29.8648 28.573 29.9793 28.7144C30.0939 28.8087 30.2657 28.8558 30.4375 28.8558C30.5521 28.8558 30.6666 28.8087 30.7812 28.7615C30.8957 28.7144 30.953 28.6201 31.0103 28.5258C31.0676 28.4315 31.0676 28.2901 31.0676 28.1958L31.1821 28.9501C31.0676 29.233 30.8957 29.4687 30.6666 29.6572C30.4375 29.8458 30.1511 29.893 29.8075 29.893C29.5211 29.9401 29.2347 29.893 29.0629 29.7515ZM28.9483 31.6844C28.6047 31.4015 28.4329 31.0244 28.4329 30.5058V30.3172H29.8075V30.5058C29.8075 30.6944 29.8648 30.7887 29.9793 30.883C30.0939 30.9772 30.2657 31.0244 30.4375 31.0244C30.6094 31.0244 30.7812 30.9772 30.8957 30.883C31.0103 30.7887 31.0676 30.6472 31.0676 30.5058V24.3772H32.4422V30.553C32.4422 30.883 32.3849 31.1658 32.2131 31.4015C32.0413 31.6372 31.8122 31.8258 31.5258 31.9201C31.2394 32.0615 30.8385 32.1087 30.4375 32.1087C29.8075 32.1087 29.292 31.9672 28.9483 31.6844Z" fill="#E0E0E0"/>
<path d="M34.6187 29.7515C34.3323 29.6101 34.1032 29.4215 33.9314 29.1387C33.7595 28.8558 33.7023 28.573 33.7023 28.1958V26.1215C33.7023 25.7444 33.7595 25.4144 33.9314 25.1315C34.1032 24.8487 34.3323 24.6601 34.6187 24.5187C34.9051 24.3772 35.2487 24.283 35.7069 24.283C36.1079 24.283 36.5088 24.3301 36.7952 24.4715C37.0816 24.613 37.3107 24.8015 37.4825 25.0844C37.6543 25.3672 37.7116 25.6501 37.7116 26.0272V27.5358H34.7332V26.6401H36.337V26.0272C36.337 25.7915 36.2797 25.603 36.1652 25.5087C36.0506 25.3672 35.8788 25.3201 35.6497 25.3201C35.4206 25.3201 35.2487 25.3672 35.1342 25.5087C35.0196 25.6501 34.9623 25.8387 34.9623 26.0744V28.243C34.9623 28.4315 35.0196 28.6201 35.1342 28.7144C35.2487 28.8087 35.4206 28.903 35.6497 28.903C35.8788 28.903 35.9933 28.8558 36.1079 28.7615C36.2224 28.6672 36.2797 28.5258 36.2797 28.3844V28.2901H37.5971V28.3372C37.5971 28.8558 37.4252 29.233 37.0816 29.5158C36.7379 29.7987 36.2224 29.9401 35.5924 29.9401C35.2487 29.9401 34.9051 29.8458 34.6187 29.7515Z" fill="#E0E0E0"/>
<path d="M38.8571 24.3772H40.289V29.893H38.8571V24.3772ZM41.6063 26.0272C41.6063 25.7915 41.549 25.603 41.4345 25.5087C41.3199 25.4144 41.1481 25.3201 40.919 25.3201C40.6899 25.3201 40.5181 25.3672 40.4035 25.5087C40.289 25.603 40.2317 25.7915 40.2317 26.0272L40.1171 25.3201C40.2317 24.9901 40.4608 24.7072 40.6899 24.5658C40.919 24.3772 41.2627 24.283 41.549 24.283C42.0073 24.283 42.3509 24.4244 42.58 24.6601C42.8091 24.8958 42.9237 25.273 42.9237 25.7444V29.893H41.549V26.0272H41.6063Z" fill="#E0E0E0"/>
<path d="M43.783 24.3765H46.704V25.4608H43.783V24.3765ZM44.8139 29.5151C44.5275 29.2794 44.413 28.9023 44.413 28.4308V22.7737H45.7876V28.3365C45.7876 28.478 45.8449 28.5723 45.9022 28.6665C45.9595 28.7608 46.074 28.7608 46.2458 28.7608H46.704V29.8923H46.0167C45.5012 29.8923 45.1003 29.7508 44.8139 29.5151Z" fill="#E0E0E0"/>
<path d="M52.0306 22.1616H53.1189L55.2954 29.8459H53.8635L52.5461 24.2359L51.2288 29.8459H49.7969L52.0306 22.1616ZM51.2861 27.3473H53.9208V28.4316H51.2861V27.3473Z" fill="#E0E0E0"/>
<path d="M57.5292 28.3848C57.5292 28.5734 57.5865 28.6677 57.7011 28.762C57.8156 28.8563 57.9302 28.9034 58.1593 28.9034C58.3311 28.9034 58.5029 28.8563 58.6175 28.762C58.732 28.6677 58.7893 28.5263 58.7893 28.3848L58.9039 28.9977C58.7893 29.3277 58.6175 29.5634 58.4457 29.7048C58.2166 29.8463 57.9875 29.9405 57.7011 29.9405C57.2429 29.9405 56.8419 29.7991 56.6128 29.5634C56.3837 29.3277 56.2692 28.9505 56.2692 28.432V24.3777H57.6438V28.3848H57.5292ZM58.732 24.3777H60.1067V29.8934H58.732V24.3777Z" fill="#E0E0E0"/>
<path d="M60.9083 24.3765H63.8294V25.4608H60.9083V24.3765ZM61.9393 29.5151C61.6529 29.2794 61.5384 28.9023 61.5384 28.4308V22.7737H62.913V28.3365C62.913 28.478 62.9703 28.5723 63.0275 28.6665C63.0848 28.7608 63.1994 28.7608 63.3712 28.7608H63.8294V29.8923H63.1421C62.6266 29.8923 62.1684 29.7508 61.9393 29.5151Z" fill="#E0E0E0"/>
<path d="M65.6051 29.7515C65.3188 29.6101 65.0897 29.4687 64.9178 29.233C64.746 28.9972 64.6887 28.7144 64.6887 28.3844V25.7915C64.6887 25.4615 64.746 25.1787 64.9178 24.9901C65.0897 24.7544 65.3188 24.5658 65.6051 24.4715C65.8915 24.3301 66.2352 24.283 66.6361 24.283C67.037 24.283 67.3807 24.3301 67.6671 24.4715C67.9535 24.613 68.1826 24.7544 68.3544 24.9901C68.5262 25.2258 68.5835 25.5087 68.5835 25.7915V28.4315C68.5835 28.7615 68.5262 29.0444 68.3544 29.2801C68.1826 29.5158 68.0107 29.7044 67.6671 29.7987C67.3807 29.9401 67.037 29.9872 66.6361 29.9872C66.2352 29.9401 65.8915 29.893 65.6051 29.7515ZM67.037 28.7144C67.1516 28.6201 67.1516 28.4787 67.1516 28.3372V25.8858C67.1516 25.7444 67.0943 25.603 67.037 25.5087C66.9225 25.4144 66.8079 25.3672 66.6361 25.3672C66.4643 25.3672 66.3497 25.4144 66.2352 25.5087C66.1206 25.603 66.0633 25.7444 66.0633 25.8858V28.3372C66.0633 28.5258 66.1206 28.6201 66.2352 28.7144C66.3497 28.8087 66.4643 28.8558 66.6361 28.8558C66.8079 28.8558 66.9798 28.8087 67.037 28.7144Z" fill="#E0E0E0"/>
<path d="M69.7863 24.3773H71.2182V29.893H69.7863V24.3773ZM72.4782 26.0273C72.4782 25.7916 72.421 25.603 72.3064 25.5087C72.1919 25.4144 72.02 25.3201 71.8482 25.3201C71.6191 25.3201 71.4473 25.3673 71.3327 25.5087C71.2182 25.603 71.1609 25.7916 71.1609 26.0273L71.0463 25.273C71.2182 24.943 71.39 24.6601 71.6764 24.5187C71.9628 24.3301 72.2491 24.2358 72.5928 24.2358C72.8792 24.2358 73.1083 24.283 73.3374 24.3773C73.5665 24.4716 73.681 24.6601 73.7956 24.8487C73.9101 25.0373 73.9674 25.3201 73.9674 25.603V29.7987H72.5928V26.0273H72.4782ZM75.2275 26.0273C75.2275 25.7916 75.1702 25.603 75.0557 25.5087C74.9411 25.4144 74.7693 25.3201 74.5402 25.3201C74.3111 25.3201 74.1393 25.3673 74.082 25.5087C73.9674 25.603 73.9101 25.7916 73.9101 26.0273L73.7383 25.273C73.8529 24.943 74.082 24.6601 74.3111 24.5187C74.5975 24.3301 74.8838 24.2358 75.1702 24.2358C75.4566 24.2358 75.6857 24.283 75.9148 24.4244C76.1439 24.5187 76.2585 24.7073 76.373 24.8958C76.4876 25.1316 76.5449 25.3673 76.5449 25.6973V29.8458H75.1129V26.0273H75.2275Z" fill="#E0E0E0"/>
<path d="M78.2631 29.563C77.9767 29.2801 77.8622 28.903 77.8622 28.3844C77.8622 27.7715 78.034 27.3472 78.3777 27.0172C78.7213 26.6872 79.2368 26.5458 79.9241 26.5458H80.6114L80.726 27.5358H79.9814C79.695 27.5358 79.5232 27.6301 79.3514 27.7715C79.2368 27.913 79.1223 28.1487 79.1223 28.4315C79.1223 28.6201 79.1795 28.7615 79.2941 28.8558C79.4086 28.9501 79.5805 28.9972 79.7523 28.9972C80.0387 28.9972 80.2105 28.9501 80.3251 28.8087C80.4396 28.6672 80.5542 28.5258 80.5542 28.2901L80.6687 28.7615C80.6687 29.0444 80.6114 29.233 80.4969 29.4215C80.3823 29.6101 80.2678 29.7515 80.0387 29.8458C79.8668 29.9401 79.6377 29.9872 79.3514 29.9872C78.8931 29.9401 78.4922 29.7987 78.2631 29.563ZM80.6114 25.8858C80.6114 25.6972 80.5542 25.5558 80.4396 25.4615C80.3251 25.3672 80.1532 25.3201 79.9241 25.3201C79.7523 25.3201 79.5805 25.3672 79.4659 25.4615C79.3514 25.5558 79.2941 25.6972 79.2941 25.8858H77.9767C77.9767 25.3672 78.1486 24.9901 78.4922 24.7072C78.8359 24.4244 79.2941 24.283 79.9241 24.283C80.3251 24.283 80.726 24.3301 81.0124 24.4715C81.2988 24.613 81.5279 24.8015 81.6997 25.0372C81.8715 25.273 81.9288 25.5558 81.9288 25.8858V29.8458H80.6114V25.8858Z" fill="#E0E0E0"/>
<path d="M82.7307 24.3765H85.6518V25.4608H82.7307V24.3765ZM83.7617 29.5151C83.4753 29.2794 83.3607 28.9023 83.3607 28.4308V22.7737H84.7354V28.3365C84.7354 28.478 84.7927 28.5723 84.8499 28.6665C84.9072 28.7608 85.0218 28.7608 85.1936 28.7608H85.6518V29.8923H84.9645C84.449 29.8923 84.0481 29.7508 83.7617 29.5151Z" fill="#E0E0E0"/>
<path d="M86.6255 22.2087H88.0001V23.3402H86.6255V22.2087ZM86.6255 24.3773H88.0001V29.893H86.6255V24.3773Z" fill="#E0E0E0"/>
<path d="M90.0048 29.7515C89.7184 29.6101 89.4893 29.4687 89.3175 29.233C89.1457 28.9972 89.0884 28.7144 89.0884 28.3844V25.7915C89.0884 25.4615 89.1457 25.1787 89.3175 24.9901C89.4893 24.7544 89.7184 24.5658 90.0048 24.4715C90.2912 24.3301 90.6348 24.283 91.0358 24.283C91.4367 24.283 91.7804 24.3301 92.0667 24.4715C92.3531 24.613 92.5822 24.7544 92.7541 24.9901C92.9259 25.2258 92.9832 25.5087 92.9832 25.7915V28.4315C92.9832 28.7615 92.9259 29.0444 92.7541 29.2801C92.5822 29.5158 92.4104 29.7044 92.0667 29.7987C91.7804 29.9401 91.4367 29.9872 91.0358 29.9872C90.6348 29.9401 90.2912 29.893 90.0048 29.7515ZM91.494 28.7144C91.6085 28.6201 91.6085 28.4787 91.6085 28.3372V25.8858C91.6085 25.7444 91.5513 25.603 91.494 25.5087C91.3794 25.4144 91.2649 25.3672 91.093 25.3672C90.9212 25.3672 90.8067 25.4144 90.6921 25.5087C90.5776 25.603 90.5203 25.7444 90.5203 25.8858V28.3372C90.5203 28.5258 90.5776 28.6201 90.6921 28.7144C90.8067 28.8087 90.9212 28.8558 91.093 28.8558C91.2649 28.8558 91.3794 28.8087 91.494 28.7144Z" fill="#E0E0E0"/>
<path d="M94.1859 24.3772H95.6178V29.893H94.1859V24.3772ZM96.8779 26.0272C96.8779 25.7915 96.8206 25.603 96.7061 25.5087C96.5915 25.4144 96.4197 25.3201 96.1906 25.3201C95.9615 25.3201 95.7896 25.3672 95.6751 25.5087C95.5605 25.603 95.5033 25.7915 95.5033 26.0272L95.3887 25.3201C95.5033 24.9901 95.7324 24.7072 95.9615 24.5658C96.1906 24.3772 96.5342 24.283 96.8206 24.283C97.2788 24.283 97.6225 24.4244 97.8516 24.6601C98.0807 24.8958 98.1953 25.273 98.1953 25.7444V29.893H96.8206V26.0272H96.8779Z" fill="#E0E0E0"/>
<path d="M11.7654 1.65575C11.0781 1.32575 10.1616 1.18433 9.18795 1.18433H6.78235H5.63682H3.46033V5.42718H6.78235V3.77718H9.01613C9.53161 3.77718 9.93254 3.91861 10.2189 4.15433C10.5053 4.39004 10.6199 4.76718 10.6199 5.23861V15.2329C10.6199 15.7043 10.5053 16.0343 10.2189 16.3172C9.93254 16.5529 9.53161 16.6943 9.01613 16.6943H6.78235V15.0443H3.46033V19.2872H5.63682H6.78235H9.18795C10.2189 19.2872 11.0781 19.1458 11.7654 18.8158C12.4527 18.4858 13.0255 18.0615 13.4264 17.4958C13.8273 16.93 13.9992 16.2229 13.9992 15.3743V5.09718C13.9992 4.24861 13.8273 3.54147 13.4264 2.97575C13.0255 2.41004 12.4527 1.98575 11.7654 1.65575Z" fill="white"/>
<path d="M20.0131 1.18433L14.8583 19.24H18.2376L19.0394 15.8458H23.6215L24.4234 19.24H27.8027L22.6478 1.18433H20.0131ZM19.6122 13.3472L21.3305 6.18147L22.9915 13.3472H19.6122Z" fill="white"/>
<path d="M38.3414 3.77718V1.18433H27.4589V3.77718H31.2391V19.2872H34.5611V3.77718H38.3414Z" fill="white"/>
<path d="M42.9808 1.18433L37.8259 19.24H41.2052L42.0071 15.8458H46.5892L47.3911 19.24H50.7704L45.6155 1.18433H42.9808ZM42.6371 13.3472L44.2981 6.18147L45.9592 13.3472H42.6371Z" fill="white"/>
<path d="M60.0493 10.0466C59.5338 9.71659 58.8464 9.43374 57.9873 9.05659C57.93 9.05659 57.93 9.00945 57.8728 9.00945C57.8155 9.00945 57.8155 9.00945 57.7582 8.96231C57.6437 8.91516 57.5864 8.86802 57.4718 8.82088C57.4145 8.77374 57.3 8.72659 57.1854 8.72659C56.5554 8.49088 56.0399 8.25517 55.6963 8.06659C55.3526 7.87802 55.0089 7.64231 54.7798 7.35945C54.5507 7.07659 54.4362 6.74659 54.4362 6.32231V5.14374C54.4362 4.62516 54.608 4.24802 54.9517 3.96516C55.2953 3.68231 55.8108 3.54088 56.4981 3.54088C57.1282 3.54088 57.5864 3.68231 57.93 4.01231C58.2737 4.29516 58.4455 4.76659 58.4455 5.33231V6.27516L61.7675 6.22802V5.23802C61.7675 4.29516 61.5384 3.54088 61.1375 2.88088C60.7366 2.22088 60.1065 1.74945 59.3619 1.41945C58.6173 1.08945 57.6437 0.900879 56.4981 0.900879C55.3526 0.900879 54.3789 1.08945 53.577 1.41945C52.7752 1.74945 52.1451 2.22088 51.7442 2.88088C51.3433 3.54088 51.1142 4.29516 51.1142 5.23802V6.22802C51.1142 7.12374 51.286 7.87802 51.6869 8.44374C52.0879 9.05659 52.6033 9.52802 53.1761 9.85802C53.7489 10.188 54.4935 10.5652 55.3526 10.8952L55.5244 10.9895C55.5817 10.9895 55.5817 10.9895 55.639 11.0366C55.6963 11.0366 55.6963 11.0366 55.7535 11.0837C56.3836 11.3195 56.8991 11.5552 57.3 11.7437C57.7009 11.9323 57.9873 12.168 58.2164 12.4509C58.4455 12.7337 58.5601 13.0637 58.5601 13.4409V14.9966C58.5601 15.5623 58.3882 15.9866 58.0446 16.2695C57.7009 16.5523 57.1854 16.7409 56.4981 16.7409C55.8108 16.7409 55.2953 16.5995 54.8944 16.2695C54.5507 15.9395 54.3216 15.5152 54.3216 14.9966V14.1009L51.0569 14.148V15.0909C51.0569 16.0337 51.2287 16.788 51.6869 17.448C52.0879 18.108 52.7179 18.5795 53.5198 18.9095C54.3216 19.2395 55.2953 19.428 56.4408 19.428C57.5864 19.428 58.5601 19.2395 59.3619 18.9095C60.1638 18.5795 60.7938 18.0609 61.1948 17.4009C61.5957 16.7409 61.8248 15.9395 61.8248 15.0437V13.488C61.8248 12.5923 61.653 11.8852 61.2521 11.3195C61.023 10.8009 60.5647 10.3766 60.0493 10.0466Z" fill="white"/>
<path d="M66.0061 1.18433H64.4023V19.2872H66.0061H67.7244H74.0247V16.6472H67.7244V11.6029H73.2802V9.01004H67.7244V3.82433H74.0247V1.18433H67.7244H66.0061Z" fill="white"/>
<path d="M77.6904 1.18433H76.0867V19.2872H77.6904H79.4087H85.7091V16.6472H79.4087V11.6029H84.9645V9.01004H79.4087V3.82433H85.7091V1.18433H79.4087H77.6904Z" fill="white"/>
<path d="M97.7371 2.97575C97.3361 2.41004 96.8206 1.93861 96.0761 1.65575C95.3887 1.32575 94.4723 1.18433 93.4986 1.18433H91.093H89.9475H87.771V19.24H89.9475H91.093H93.4986C94.5296 19.24 95.3887 19.0986 96.0761 18.7686C96.7634 18.4386 97.3361 18.0143 97.7371 17.4486C98.138 16.8829 98.3098 16.1758 98.3098 15.3272V5.09718C98.3098 4.29575 98.0807 3.58861 97.7371 2.97575ZM94.9305 15.2329C94.9305 15.7043 94.816 16.0343 94.5296 16.3172C94.2432 16.5529 93.8423 16.6943 93.3268 16.6943H91.093V3.77718H93.3268C93.8423 3.77718 94.2432 3.91861 94.5296 4.15433C94.816 4.39004 94.9305 4.76718 94.9305 5.23861V15.2329Z" fill="white"/>
<path d="M5.23591 14.3364C5.00681 14.5249 4.66315 14.5249 4.43405 14.3835C4.09039 14.1949 4.03311 13.8649 4.26222 13.5821C4.31949 13.5349 4.31949 13.4878 4.37677 13.4878C4.60588 13.2521 4.72043 13.0164 4.72043 12.7335C4.72043 12.4978 4.60588 12.2621 4.43405 12.0735C4.37677 12.0264 4.37677 11.9792 4.3195 11.9792C4.14767 11.7907 4.09039 11.6021 4.20494 11.4135C4.3195 11.1778 4.60588 11.0364 4.83498 11.0364C5.00681 11.0364 5.12136 11.0835 5.23591 11.1778C5.46502 11.3664 5.5223 11.6492 5.35047 11.8849C5.29319 11.9321 5.29319 11.9792 5.23591 12.0264C4.83498 12.3564 4.72043 12.7807 4.94953 13.2049C5.00681 13.3464 5.12136 13.4878 5.23591 13.5821C5.40774 13.7235 5.46502 13.9121 5.40774 14.1478C5.35047 14.1949 5.29319 14.2421 5.23591 14.3364Z" fill="#FEC010"/>
<path d="M5.23592 9.29219C5.00681 9.48076 4.66315 9.48076 4.43405 9.33933C4.09039 9.15076 4.03311 8.82076 4.26222 8.5379C4.31949 8.49076 4.31949 8.44362 4.37677 8.44362C4.60588 8.2079 4.72043 7.97219 4.72043 7.68933C4.72043 7.45362 4.60588 7.2179 4.43405 7.02933C4.37677 6.98219 4.37677 6.93504 4.3195 6.93504C4.14767 6.74647 4.09039 6.5579 4.20494 6.36933C4.3195 6.13362 4.60588 5.99219 4.83498 5.99219C5.00681 5.99219 5.12136 6.03933 5.23592 6.13362C5.46502 6.32219 5.5223 6.60504 5.35047 6.84076C5.29319 6.8879 5.29319 6.93504 5.23592 6.98219C4.83498 7.31219 4.72043 7.73647 4.94953 8.16076C5.00681 8.30219 5.12136 8.44362 5.23592 8.5379C5.40774 8.67933 5.46502 8.8679 5.40774 9.10362C5.35047 9.15076 5.29319 9.1979 5.23592 9.29219Z" fill="#FEC010"/>
<path d="M2.25745 12.9685C2.02834 12.7799 1.97107 12.4499 2.20017 12.2142C2.25745 12.167 2.31473 12.1199 2.372 12.0256C2.54383 11.837 2.60111 11.6485 2.60111 11.4599C2.60111 11.2242 2.54383 11.0356 2.42928 10.847C2.372 10.7527 2.31473 10.7056 2.20017 10.6113C2.1429 10.5642 2.08562 10.4699 2.02835 10.3756C1.97107 10.187 1.97107 10.0456 2.08562 9.90417C2.25745 9.7156 2.42928 9.66846 2.71566 9.66846C2.88749 9.66846 3.05932 9.76274 3.17387 9.85703C3.3457 10.0456 3.3457 10.2342 3.28842 10.4227C3.23115 10.4699 3.23115 10.5642 3.11659 10.6113C2.94476 10.7527 2.83021 10.8942 2.77294 11.0827C2.77294 11.3656 2.77294 11.6485 2.94476 11.9313C3.00204 12.0256 3.11659 12.1199 3.23115 12.2142C3.46025 12.4027 3.46025 12.6856 3.28842 12.8742C3.11659 13.1099 2.77294 13.157 2.48655 13.0627C2.42928 13.0627 2.31473 13.0156 2.25745 12.9685Z" fill="#FEC010"/>
<path d="M7.24076 7.49984C7.46986 7.68841 7.52714 7.97127 7.29804 8.20698C7.24076 8.25412 7.18348 8.30127 7.12621 8.34841C6.95438 8.48984 6.83982 8.67841 6.83982 8.86698C6.78255 9.05555 6.83983 9.24412 6.8971 9.43269C6.95438 9.57412 7.01165 9.66841 7.12621 9.76269C7.18348 9.80984 7.24076 9.85698 7.24076 9.85698C7.41259 10.0456 7.46987 10.2341 7.29804 10.4227C7.18348 10.6584 6.95438 10.7527 6.668 10.7527C6.49617 10.7527 6.38161 10.7056 6.26706 10.6113C6.15251 10.517 6.09523 10.4227 6.03796 10.2813C5.98068 10.0927 6.03796 9.95127 6.20979 9.80984C6.26706 9.71555 6.38162 9.66841 6.43889 9.57412C6.55344 9.4327 6.61072 9.24412 6.668 9.05555C6.668 8.86698 6.668 8.67841 6.55344 8.48984C6.49617 8.39555 6.38161 8.25412 6.26706 8.15984C6.15251 8.06555 6.03796 7.92412 6.09523 7.73555C6.09523 7.49984 6.32434 7.26412 6.61072 7.21698C6.83983 7.16984 7.01165 7.21698 7.18348 7.31127C7.18348 7.45269 7.24076 7.49984 7.24076 7.49984Z" fill="#FEC010"/>
<path d="M0.252872 10.6113C-0.0335094 10.4227 -0.0335094 10.0456 0.252872 9.80984C0.539253 9.57413 0.940188 9.57413 1.22657 9.80984C1.45567 9.99841 1.51295 10.3756 1.22657 10.5641C0.882911 10.847 0.481977 10.847 0.252872 10.6113Z" fill="#FEC010"/>
<path d="M4.26215 10.6113C3.97577 10.4227 3.97577 10.0456 4.26215 9.80984C4.54853 9.57413 4.94947 9.57413 5.23585 9.80984C5.46495 9.99841 5.52223 10.3756 5.23585 10.5641C4.94947 10.847 4.54853 10.847 4.26215 10.6113Z" fill="#FEC010"/>
<path d="M6.32416 12.3098C6.03778 12.1212 6.03778 11.744 6.32416 11.5083C6.61054 11.2726 7.01148 11.2726 7.29786 11.5083C7.52696 11.6969 7.58424 12.074 7.29786 12.2626C6.9542 12.5455 6.55327 12.4983 6.32416 12.3098Z" fill="#FEC010"/>
<path d="M2.25751 8.91498C1.97113 8.72641 1.97113 8.34927 2.25751 8.11355C2.54389 7.87784 2.94483 7.87784 3.23121 8.11355C3.46031 8.30212 3.51759 8.67927 3.23121 8.86784C2.94483 9.1507 2.48662 9.1507 2.25751 8.91498Z" fill="#FEC010"/>
<path d="M9.24522 9.85721C9.47433 10.0458 9.5316 10.4229 9.24522 10.6586C8.95884 10.8943 8.5579 10.8943 8.3288 10.6586C8.04242 10.4229 8.04242 10.0929 8.3288 9.85721C8.61518 9.62149 9.01612 9.62149 9.24522 9.85721Z" fill="#FEC010"/>
</svg>
