<svg width="59" height="12" viewBox="0 0 59 12" fill="none" xmlns="http://www.w3.org/2000/svg">
<path d="M3.74365 6.26514H1.75098V5.0083H3.74365C4.0516 5.0083 4.30225 4.95817 4.49561 4.85791C4.68896 4.75407 4.8304 4.61084 4.91992 4.42822C5.00944 4.24561 5.0542 4.03971 5.0542 3.81055C5.0542 3.5778 5.00944 3.36117 4.91992 3.16064C4.8304 2.96012 4.68896 2.79899 4.49561 2.67725C4.30225 2.5555 4.0516 2.49463 3.74365 2.49463H2.30957V9.05273H0.698242V1.23242H3.74365C4.35596 1.23242 4.88053 1.34342 5.31738 1.56543C5.75781 1.78385 6.0944 2.08643 6.32715 2.47314C6.5599 2.85986 6.67627 3.30208 6.67627 3.7998C6.67627 4.30469 6.5599 4.74154 6.32715 5.11035C6.0944 5.47917 5.75781 5.76383 5.31738 5.96436C4.88053 6.16488 4.35596 6.26514 3.74365 6.26514ZM7.36914 6.20605V6.09326C7.36914 5.66715 7.43001 5.27507 7.55176 4.91699C7.6735 4.55534 7.85075 4.24202 8.0835 3.97705C8.31624 3.71208 8.6027 3.50618 8.94287 3.35938C9.28304 3.20898 9.67334 3.13379 10.1138 3.13379C10.5542 3.13379 10.9463 3.20898 11.29 3.35938C11.6338 3.50618 11.922 3.71208 12.1548 3.97705C12.3911 4.24202 12.5701 4.55534 12.6919 4.91699C12.8136 5.27507 12.8745 5.66715 12.8745 6.09326V6.20605C12.8745 6.62858 12.8136 7.02067 12.6919 7.38232C12.5701 7.7404 12.3911 8.05371 12.1548 8.32227C11.922 8.58724 11.6356 8.79313 11.2954 8.93994C10.9552 9.08675 10.5649 9.16016 10.1245 9.16016C9.68408 9.16016 9.29199 9.08675 8.94824 8.93994C8.60807 8.79313 8.31982 8.58724 8.0835 8.32227C7.85075 8.05371 7.6735 7.7404 7.55176 7.38232C7.43001 7.02067 7.36914 6.62858 7.36914 6.20605ZM8.91602 6.09326V6.20605C8.91602 6.44954 8.9375 6.67692 8.98047 6.88818C9.02344 7.09945 9.09147 7.28564 9.18457 7.44678C9.28125 7.60433 9.40658 7.72786 9.56055 7.81738C9.71452 7.9069 9.90251 7.95166 10.1245 7.95166C10.3394 7.95166 10.5238 7.9069 10.6777 7.81738C10.8317 7.72786 10.9552 7.60433 11.0483 7.44678C11.1414 7.28564 11.2095 7.09945 11.2524 6.88818C11.299 6.67692 11.3223 6.44954 11.3223 6.20605V6.09326C11.3223 5.85693 11.299 5.63493 11.2524 5.42725C11.2095 5.21598 11.1396 5.02979 11.043 4.86865C10.9499 4.70394 10.8263 4.57503 10.6724 4.48193C10.5184 4.38883 10.3322 4.34229 10.1138 4.34229C9.89535 4.34229 9.70915 4.38883 9.55518 4.48193C9.40479 4.57503 9.28125 4.70394 9.18457 4.86865C9.09147 5.02979 9.02344 5.21598 8.98047 5.42725C8.9375 5.63493 8.91602 5.85693 8.91602 6.09326ZM15.4849 7.54883L16.6934 3.24121H17.6763L17.3594 4.93311L16.1509 9.05273H15.3291L15.4849 7.54883ZM14.8726 3.24121L15.7373 7.54346L15.8179 9.05273H14.8511L13.3794 3.24121H14.8726ZM18.7827 7.47363L19.626 3.24121H21.1245L19.6528 9.05273H18.6914L18.7827 7.47363ZM17.8105 3.24121L19.0137 7.5166L19.1802 9.05273H18.353L17.1445 4.93848L16.8384 3.24121H17.8105ZM24.5781 9.16016C24.127 9.16016 23.7223 9.08854 23.3643 8.94531C23.0062 8.7985 22.7018 8.59619 22.4512 8.33838C22.2041 8.08057 22.0143 7.78158 21.8818 7.44141C21.7493 7.09766 21.6831 6.73242 21.6831 6.3457V6.13086C21.6831 5.69043 21.7458 5.2876 21.8711 4.92236C21.9964 4.55713 22.1755 4.24023 22.4082 3.97168C22.6445 3.70312 22.931 3.49723 23.2676 3.354C23.6042 3.20719 23.9837 3.13379 24.4062 3.13379C24.818 3.13379 25.1833 3.20182 25.502 3.33789C25.8206 3.47396 26.0874 3.66732 26.3022 3.91797C26.5207 4.16862 26.6854 4.4694 26.7964 4.82031C26.9074 5.16764 26.9629 5.55436 26.9629 5.98047V6.625H22.3438V5.59375H25.4429V5.47559C25.4429 5.26074 25.4035 5.06917 25.3247 4.90088C25.2495 4.729 25.1349 4.59294 24.981 4.49268C24.827 4.39242 24.63 4.34229 24.3901 4.34229C24.186 4.34229 24.0106 4.38704 23.8638 4.47656C23.717 4.56608 23.597 4.69141 23.5039 4.85254C23.4144 5.01367 23.3464 5.20345 23.2998 5.42188C23.2568 5.63672 23.2354 5.87305 23.2354 6.13086V6.3457C23.2354 6.57845 23.2676 6.79329 23.332 6.99023C23.4001 7.18717 23.495 7.35726 23.6167 7.50049C23.742 7.64372 23.8924 7.75472 24.0679 7.8335C24.2469 7.91227 24.4492 7.95166 24.6748 7.95166C24.9541 7.95166 25.2137 7.89795 25.4536 7.79053C25.6971 7.67952 25.9066 7.51302 26.082 7.29102L26.834 8.10742C26.7122 8.28288 26.5457 8.45117 26.3345 8.6123C26.1268 8.77344 25.8761 8.90592 25.5825 9.00977C25.2889 9.11003 24.9541 9.16016 24.5781 9.16016ZM29.3906 4.50879V9.05273H27.8438V3.24121H29.2993L29.3906 4.50879ZM31.1416 3.20361L31.1147 4.6377C31.0396 4.62695 30.9482 4.618 30.8408 4.61084C30.737 4.6001 30.6421 4.59473 30.5562 4.59473C30.3377 4.59473 30.1479 4.62337 29.9868 4.68066C29.8293 4.73438 29.6968 4.81494 29.5894 4.92236C29.4855 5.02979 29.4067 5.16048 29.353 5.31445C29.3029 5.46842 29.2743 5.64388 29.2671 5.84082L28.9556 5.74414C28.9556 5.36816 28.9932 5.02262 29.0684 4.70752C29.1436 4.38883 29.2528 4.11133 29.396 3.875C29.5428 3.63867 29.7218 3.45605 29.9331 3.32715C30.1444 3.19824 30.3861 3.13379 30.6582 3.13379C30.7441 3.13379 30.8319 3.14095 30.9214 3.15527C31.0109 3.16602 31.0843 3.18213 31.1416 3.20361ZM34.4395 9.16016C33.9883 9.16016 33.5837 9.08854 33.2256 8.94531C32.8675 8.7985 32.5632 8.59619 32.3125 8.33838C32.0654 8.08057 31.8757 7.78158 31.7432 7.44141C31.6107 7.09766 31.5444 6.73242 31.5444 6.3457V6.13086C31.5444 5.69043 31.6071 5.2876 31.7324 4.92236C31.8577 4.55713 32.0368 4.24023 32.2695 3.97168C32.5059 3.70312 32.7923 3.49723 33.1289 3.354C33.4655 3.20719 33.8451 3.13379 34.2676 3.13379C34.6794 3.13379 35.0446 3.20182 35.3633 3.33789C35.682 3.47396 35.9487 3.66732 36.1636 3.91797C36.382 4.16862 36.5467 4.4694 36.6577 4.82031C36.7687 5.16764 36.8242 5.55436 36.8242 5.98047V6.625H32.2051V5.59375H35.3042V5.47559C35.3042 5.26074 35.2648 5.06917 35.186 4.90088C35.1108 4.729 34.9963 4.59294 34.8423 4.49268C34.6883 4.39242 34.4914 4.34229 34.2515 4.34229C34.0474 4.34229 33.8719 4.38704 33.7251 4.47656C33.5783 4.56608 33.4583 4.69141 33.3652 4.85254C33.2757 5.01367 33.2077 5.20345 33.1611 5.42188C33.1182 5.63672 33.0967 5.87305 33.0967 6.13086V6.3457C33.0967 6.57845 33.1289 6.79329 33.1934 6.99023C33.2614 7.18717 33.3563 7.35726 33.478 7.50049C33.6034 7.64372 33.7537 7.75472 33.9292 7.8335C34.1082 7.91227 34.3105 7.95166 34.5361 7.95166C34.8154 7.95166 35.075 7.89795 35.3149 7.79053C35.5584 7.67952 35.7679 7.51302 35.9434 7.29102L36.6953 8.10742C36.5736 8.28288 36.4071 8.45117 36.1958 8.6123C35.9881 8.77344 35.7375 8.90592 35.4438 9.00977C35.1502 9.11003 34.8154 9.16016 34.4395 9.16016ZM41.1372 7.78516V0.802734H42.6948V9.05273H41.293L41.1372 7.78516ZM37.4634 6.2168V6.104C37.4634 5.65999 37.5135 5.25716 37.6138 4.89551C37.714 4.53027 37.8608 4.21696 38.0542 3.95557C38.2476 3.69417 38.4857 3.49186 38.7686 3.34863C39.0514 3.2054 39.3737 3.13379 39.7354 3.13379C40.0755 3.13379 40.3727 3.2054 40.627 3.34863C40.8848 3.49186 41.1032 3.69596 41.2822 3.96094C41.4648 4.22233 41.6117 4.53206 41.7227 4.89014C41.8337 5.24463 41.9142 5.63314 41.9644 6.05566V6.30273C41.9142 6.70736 41.8337 7.08333 41.7227 7.43066C41.6117 7.77799 41.4648 8.08236 41.2822 8.34375C41.1032 8.60156 40.8848 8.80208 40.627 8.94531C40.3691 9.08854 40.0684 9.16016 39.7246 9.16016C39.363 9.16016 39.0407 9.08675 38.7578 8.93994C38.4785 8.79313 38.2422 8.58724 38.0488 8.32227C37.859 8.05729 37.714 7.74577 37.6138 7.3877C37.5135 7.02962 37.4634 6.63932 37.4634 6.2168ZM39.0103 6.104V6.2168C39.0103 6.45671 39.0282 6.6805 39.064 6.88818C39.1034 7.09587 39.166 7.28027 39.252 7.44141C39.3415 7.59896 39.4561 7.72249 39.5957 7.81201C39.7389 7.89795 39.9126 7.94092 40.1167 7.94092C40.3817 7.94092 40.6001 7.88184 40.772 7.76367C40.9438 7.64193 41.0745 7.47542 41.1641 7.26416C41.2572 7.0529 41.3109 6.80941 41.3252 6.53369V5.83008C41.3145 5.60449 41.2822 5.40218 41.2285 5.22314C41.1784 5.04053 41.1032 4.88477 41.0029 4.75586C40.9062 4.62695 40.7845 4.52669 40.6377 4.45508C40.4945 4.38346 40.3244 4.34766 40.1274 4.34766C39.9269 4.34766 39.755 4.39421 39.6118 4.4873C39.4686 4.57682 39.3522 4.70036 39.2627 4.85791C39.1768 5.01546 39.1123 5.20166 39.0693 5.4165C39.0299 5.62777 39.0103 5.85693 39.0103 6.104ZM49.8008 5.62061H47.792L47.7812 4.51416H49.4678C49.765 4.51416 50.0085 4.47656 50.1982 4.40137C50.388 4.32259 50.5295 4.2098 50.6226 4.06299C50.7192 3.9126 50.7676 3.72998 50.7676 3.51514C50.7676 3.27165 50.721 3.07471 50.6279 2.92432C50.5384 2.77393 50.397 2.66471 50.2036 2.59668C50.0138 2.52865 49.7686 2.49463 49.4678 2.49463H48.3506V9.05273H46.7393V1.23242H49.4678C49.9225 1.23242 50.3289 1.27539 50.687 1.36133C51.0487 1.44727 51.3548 1.57796 51.6055 1.75342C51.8561 1.92887 52.0477 2.15088 52.1802 2.41943C52.3127 2.68441 52.3789 2.99951 52.3789 3.36475C52.3789 3.68701 52.3055 3.98421 52.1587 4.25635C52.0155 4.52848 51.7881 4.75049 51.4766 4.92236C51.1686 5.09424 50.7658 5.18913 50.2681 5.20703L49.8008 5.62061ZM49.731 9.05273H47.3516L47.98 7.7959H49.731C50.0138 7.7959 50.2448 7.75114 50.4238 7.66162C50.6029 7.56852 50.7354 7.4432 50.8213 7.28564C50.9072 7.12809 50.9502 6.94727 50.9502 6.74316C50.9502 6.514 50.9108 6.31527 50.832 6.14697C50.7568 5.97868 50.6351 5.84977 50.4668 5.76025C50.2985 5.66715 50.0765 5.62061 49.8008 5.62061H48.2485L48.2593 4.51416H50.1929L50.5635 4.94922C51.0397 4.94206 51.4229 5.0262 51.7129 5.20166C52.0065 5.37354 52.2196 5.59733 52.3521 5.87305C52.4881 6.14876 52.5562 6.44417 52.5562 6.75928C52.5562 7.26058 52.4469 7.68311 52.2285 8.02686C52.0101 8.36702 51.6896 8.62305 51.2671 8.79492C50.8481 8.9668 50.3361 9.05273 49.731 9.05273ZM55.3921 8.39746L56.9336 3.24121H58.5933L56.2568 9.92822C56.2067 10.075 56.1387 10.2326 56.0527 10.4009C55.9704 10.5692 55.8576 10.7285 55.7144 10.8789C55.5747 11.0329 55.3975 11.1582 55.1826 11.2549C54.9714 11.3516 54.7118 11.3999 54.4038 11.3999C54.257 11.3999 54.137 11.391 54.0439 11.373C53.9508 11.3551 53.8398 11.3301 53.7109 11.2979V10.1646C53.7503 10.1646 53.7915 10.1646 53.8345 10.1646C53.8774 10.1681 53.9186 10.1699 53.958 10.1699C54.1621 10.1699 54.3286 10.1466 54.4575 10.1001C54.5864 10.0535 54.6903 9.98193 54.769 9.88525C54.8478 9.79215 54.9105 9.67041 54.957 9.52002L55.3921 8.39746ZM54.7476 3.24121L56.0098 7.45215L56.23 9.09033L55.1772 9.20312L53.0879 3.24121H54.7476Z" fill="white"/>
</svg>
