<svg width="40" height="31" viewBox="0 0 40 31" fill="none" xmlns="http://www.w3.org/2000/svg">
<rect width="40" height="31" rx="5" fill="#6FA6EE" fill-opacity="0.36"/>
<path d="M18.5833 14.7916V19.0416" stroke="#455BEF" stroke-width="1.5" stroke-linecap="round" stroke-linejoin="round"/>
<path d="M21.4167 14.7916V19.0416" stroke="#455BEF" stroke-width="1.5" stroke-linecap="round" stroke-linejoin="round"/>
<path d="M24.9584 11.25V21.1667C24.9584 21.5424 24.8091 21.9027 24.5434 22.1684C24.2777 22.4341 23.9174 22.5833 23.5417 22.5833H16.4584C16.0826 22.5833 15.7223 22.4341 15.4566 22.1684C15.1909 21.9027 15.0417 21.5424 15.0417 21.1667V11.25" stroke="#455BEF" stroke-width="1.5" stroke-linecap="round" stroke-linejoin="round"/>
<path d="M13.625 11.25H26.375" stroke="#455BEF" stroke-width="1.5" stroke-linecap="round" stroke-linejoin="round"/>
<path d="M17.1667 11.25V9.83329C17.1667 9.45757 17.3159 9.09723 17.5816 8.83156C17.8473 8.56588 18.2076 8.41663 18.5834 8.41663H21.4167C21.7924 8.41663 22.1527 8.56588 22.4184 8.83156C22.6841 9.09723 22.8334 9.45757 22.8334 9.83329V11.25" stroke="#455BEF" stroke-width="1.5" stroke-linecap="round" stroke-linejoin="round"/>
</svg>
