<svg width="40" height="31" viewBox="0 0 40 31" fill="none" xmlns="http://www.w3.org/2000/svg">
<rect width="40" height="31" rx="5" fill="#6FA6EE" fill-opacity="0.36"/>
<path d="M24.0867 15.5L24.9267 14.6075C25.22 14.2958 25.5933 14.1258 26 14.0833V13.375L22 9.125H15.3333C14.5933 9.125 14 9.75542 14 10.5417V20.4583C14 21.2375 14.5933 21.875 15.3333 21.875H19.3333V20.5504L19.42 20.4583H15.3333V10.5417H20V15.5H24.0867ZM21.3333 10.1875L25 14.0833H21.3333V10.1875ZM24.7533 16.7962L26.1133 18.2413L22.0267 22.5833H20.6667V21.1383L24.7533 16.7962ZM27.2333 17.0512L26.58 17.7454L25.22 16.3004L25.8733 15.6062C26 15.4646 26.22 15.4646 26.3533 15.6062L27.2333 16.5412C27.3667 16.6829 27.3667 16.9167 27.2333 17.0512Z" fill="#455BEF"/>
</svg>
