<svg width="17" height="17" viewBox="0 0 17 17" fill="none" xmlns="http://www.w3.org/2000/svg">
<path d="M15.6966 8.18636C15.361 8.01487 14.9834 7.94306 14.6083 7.97942C14.2332 8.01578 13.8763 8.1588 13.5799 8.39155L11.9652 9.66102C11.772 9.41768 11.5175 9.23021 11.2278 9.11792C10.9381 9.00563 10.6237 8.97257 10.3169 9.02214L7.67053 9.44522C7.56194 9.46006 7.45136 9.44675 7.34939 9.40657C6.7662 9.19607 6.14066 9.13013 5.5264 9.2144C4.91214 9.29868 4.32748 9.53066 3.82253 9.89045C3.76347 9.71387 3.6442 9.56369 3.48559 9.46618C3.32698 9.36867 3.13913 9.33003 2.95491 9.35703L1.74455 9.53213C1.5355 9.56269 1.34709 9.67491 1.22066 9.84419C1.09423 10.0135 1.04009 10.226 1.07011 10.4351L1.63249 14.3219C1.66335 14.5308 1.77566 14.719 1.94486 14.8454C2.11407 14.9717 2.32641 15.0259 2.53546 14.9961L3.74582 14.821C3.91041 14.7967 4.0632 14.7213 4.18266 14.6055C4.30213 14.4897 4.38223 14.3393 4.41168 14.1756L5.11778 13.6322C5.29271 13.4984 5.51094 13.434 5.73048 13.4514L9.24483 13.7261C9.68902 13.7607 10.1355 13.701 10.555 13.551C10.9746 13.4011 11.3577 13.1641 11.6793 12.8558L15.7967 8.90775C15.8482 8.85864 15.8872 8.79799 15.9106 8.73082C15.934 8.66365 15.9412 8.59188 15.9314 8.52142C15.9216 8.45097 15.8952 8.38384 15.8544 8.32559C15.8136 8.26733 15.7595 8.21961 15.6966 8.18636ZM3.66955 14.2955L2.4592 14.4706C2.38954 14.48 2.31895 14.4618 2.26262 14.4197C2.2063 14.3776 2.16874 14.3152 2.15803 14.2457L1.59592 10.3591C1.58589 10.2893 1.60393 10.2184 1.64609 10.1619C1.68824 10.1054 1.75107 10.0679 1.82081 10.0577L3.03117 9.88257C3.10089 9.8728 3.17164 9.89099 3.228 9.93317C3.28437 9.97534 3.32178 10.0381 3.33207 10.1077L3.89445 13.9946C3.90438 14.0643 3.88629 14.1351 3.84414 14.1915C3.80199 14.2479 3.73921 14.2853 3.66955 14.2955ZM11.3115 12.4724C11.0439 12.7289 10.7252 12.9259 10.3762 13.0507C10.0272 13.1754 9.65585 13.2251 9.28635 13.1964L5.77122 12.9217C5.42141 12.8942 5.07376 12.9969 4.7951 13.2102L4.36538 13.5408L3.92117 10.4707C4.36651 10.1034 4.89963 9.85818 5.46828 9.759C6.03692 9.65981 6.62159 9.71008 7.16496 9.90488C7.35246 9.97728 7.55557 9.99963 7.75432 9.96973L10.4012 9.54665C10.6947 9.50045 10.995 9.56205 11.2466 9.72008C11.4982 9.8781 11.684 10.1219 11.7698 10.4063L8.65158 10.9184C8.58293 10.9307 8.52189 10.9695 8.48164 11.0265C8.44139 11.0835 8.42517 11.154 8.43648 11.2228C8.4478 11.2916 8.48574 11.3532 8.5421 11.3943C8.59846 11.4354 8.66873 11.4526 8.73771 11.4423L11.9561 10.9142C12.0181 10.9031 12.0771 10.879 12.1292 10.8436C12.1813 10.8081 12.2254 10.7621 12.2585 10.7084C12.2916 10.6548 12.313 10.5948 12.3213 10.5323C12.3296 10.4698 12.3247 10.4063 12.3068 10.3459C12.2827 10.2777 12.2631 10.1913 12.2332 10.1262L13.9086 8.80892C14.1085 8.65179 14.3465 8.55038 14.5983 8.51498C14.8501 8.47958 15.1068 8.51146 15.3423 8.60737L11.3115 12.4724Z" fill="white"/>
<path d="M11.0223 6.12614C10.8976 6.12593 10.7782 6.07626 10.6901 5.98803C10.6021 5.8998 10.5527 5.78023 10.5527 5.65559C10.5513 5.58603 10.5225 5.51984 10.4728 5.47122C10.423 5.42261 10.3562 5.39545 10.2866 5.39559C10.217 5.39573 10.1503 5.42315 10.1007 5.47197C10.0511 5.52078 10.0227 5.58709 10.0215 5.65665C10.0223 5.87521 10.0947 6.08748 10.2277 6.26094C10.3606 6.4344 10.5468 6.55947 10.7577 6.61698V7.05427C10.7577 7.12471 10.7857 7.19228 10.8355 7.24209C10.8853 7.29191 10.9528 7.31989 11.0233 7.31989C11.0937 7.31989 11.1613 7.29191 11.2111 7.24209C11.2609 7.19228 11.2889 7.12471 11.2889 7.05427V6.61734C11.5227 6.5535 11.7254 6.40689 11.8591 6.20479C11.9929 6.00268 12.0486 5.75886 12.016 5.51871C11.9834 5.27856 11.8646 5.05844 11.6818 4.89933C11.499 4.74022 11.2646 4.65296 11.0223 4.65378C10.9292 4.65358 10.8384 4.62581 10.7611 4.57398C10.6839 4.52215 10.6237 4.44858 10.5883 4.36258C10.5528 4.27658 10.5436 4.182 10.5619 4.09079C10.5802 3.99958 10.6251 3.91584 10.6909 3.85013C10.7568 3.78443 10.8406 3.73972 10.9319 3.72165C11.0231 3.70358 11.1177 3.71296 11.2036 3.74861C11.2895 3.78426 11.363 3.84457 11.4146 3.92193C11.4663 3.99929 11.4938 4.09023 11.4938 4.18325C11.4952 4.2528 11.5238 4.31905 11.5735 4.36775C11.6231 4.41646 11.6899 4.44374 11.7595 4.44373C11.8291 4.44373 11.8958 4.41644 11.9455 4.36773C11.9952 4.31902 12.0237 4.25277 12.0251 4.18322C12.0244 3.96462 11.9519 3.75229 11.819 3.57878C11.686 3.40528 11.4998 3.28016 11.2889 3.22261V2.78429C11.2876 2.71474 11.259 2.6485 11.2093 2.59979C11.1596 2.55108 11.0928 2.5238 11.0233 2.5238C10.9537 2.52381 10.8869 2.55109 10.8373 2.5998C10.7876 2.64851 10.759 2.71476 10.7577 2.78431V3.22226C10.5239 3.286 10.3212 3.43255 10.1875 3.6346C10.0537 3.83665 9.99796 4.08043 10.0306 4.32054C10.0632 4.56065 10.182 4.78072 10.3648 4.93976C10.5476 5.0988 10.782 5.18597 11.0243 5.18503C11.148 5.18707 11.2658 5.23769 11.3524 5.32593C11.439 5.41418 11.4874 5.53296 11.4872 5.65661C11.4869 5.78026 11.438 5.89883 11.351 5.98669C11.264 6.07455 11.1459 6.12464 11.0223 6.12614Z" fill="white"/>
<path d="M5.9762 8.49994C6.50778 8.49951 7.03081 8.36605 7.49761 8.11173C7.9644 7.85741 8.36013 7.4903 8.64873 7.04388C8.94741 7.37816 9.31329 7.64561 9.72244 7.82876C10.1316 8.0119 10.5748 8.10661 11.0231 8.10669C15.2504 7.93241 15.2518 1.90654 11.0231 1.73169C10.4911 1.73371 9.96804 1.868 9.50092 2.12247C9.0338 2.37694 8.63731 2.7436 8.34715 3.18942C8.04932 2.85488 7.68412 2.58709 7.27551 2.40363C6.8669 2.22018 6.42411 2.1252 5.9762 2.12494C1.74887 2.29922 1.74746 8.32509 5.9762 8.49994ZM11.0231 2.26294C14.5467 2.40888 14.5461 7.42983 11.0231 7.57544C10.616 7.57488 10.2145 7.48054 9.84971 7.29973C9.48496 7.11892 9.16678 6.85651 8.91984 6.53286C9.1108 6.06909 9.18983 5.56685 9.15053 5.06685C9.11123 4.56684 8.9547 4.08312 8.69362 3.65488C8.9219 3.23571 9.25844 2.88546 9.66816 2.64063C10.0779 2.39581 10.5458 2.26538 11.0231 2.26294ZM5.9762 2.65619C6.68043 2.65702 7.35557 2.93714 7.85354 3.4351C8.3515 3.93307 8.63162 4.60821 8.63245 5.31244C8.48641 8.8363 3.46545 8.83527 3.31995 5.31242C3.32078 4.6082 3.60091 3.93305 4.09887 3.43509C4.59683 2.93714 5.27198 2.65702 5.9762 2.65619Z" fill="white"/>
<path d="M4.02979 5.70548C4.02976 5.74037 4.03662 5.77492 4.04996 5.80715C4.06331 5.83939 4.08287 5.86868 4.10754 5.89335C4.13221 5.91802 4.1615 5.93758 4.19374 5.95093C4.22597 5.96427 4.26052 5.97112 4.29541 5.9711H4.87813C5.31354 7.3941 7.13718 7.68268 7.8868 6.35808C7.92065 6.29729 7.92932 6.22564 7.91093 6.15853C7.89254 6.09142 7.84856 6.0342 7.78844 5.99915C7.72833 5.96411 7.65686 5.95404 7.5894 5.97111C7.52194 5.98818 7.46387 6.03102 7.42765 6.09044C7.33214 6.27765 7.18409 6.43292 7.00165 6.53723C6.8192 6.64154 6.61028 6.69035 6.4005 6.67768C6.19072 6.66501 5.9892 6.5914 5.82063 6.46589C5.65207 6.34038 5.52378 6.16841 5.45151 5.97107L6.11354 5.9711C6.18399 5.9711 6.25155 5.94312 6.30136 5.8933C6.35118 5.84349 6.37916 5.77593 6.37916 5.70548C6.37916 5.63503 6.35118 5.56747 6.30136 5.51765C6.25155 5.46784 6.18399 5.43985 6.11354 5.43985H5.31383C5.30109 5.35542 5.30109 5.26955 5.31383 5.18512H6.11354C6.18309 5.18376 6.24933 5.15518 6.29804 5.10551C6.34675 5.05584 6.37403 4.98905 6.37403 4.91949C6.37403 4.84992 6.34674 4.78313 6.29803 4.73347C6.24932 4.6838 6.18307 4.65522 6.11352 4.65387H5.45149C5.52378 4.45654 5.65208 4.28459 5.82065 4.15909C5.98922 4.03359 6.19075 3.96 6.40052 3.94734C6.6103 3.93468 6.81921 3.98349 7.00166 4.0878C7.1841 4.19211 7.33215 4.34738 7.42766 4.53458C7.46316 4.59547 7.5214 4.63975 7.58955 4.6577C7.65771 4.67565 7.73021 4.66578 7.79109 4.63028C7.85198 4.59478 7.89627 4.53654 7.91421 4.46838C7.93216 4.40023 7.9223 4.32773 7.88679 4.26685C7.7472 4.0109 7.5424 3.79642 7.29316 3.64517C7.04392 3.49392 6.75911 3.41129 6.46762 3.40564C6.10486 3.41936 5.75574 3.5475 5.47023 3.77171C5.18472 3.99592 4.97747 4.3047 4.87813 4.65387H4.29541C4.22584 4.65519 4.15956 4.68376 4.11082 4.73343C4.06208 4.7831 4.03478 4.84991 4.03479 4.9195C4.03479 4.98909 4.06209 5.0559 4.11083 5.10557C4.15957 5.15524 4.22585 5.1838 4.29543 5.18512H4.77741C4.77038 5.26989 4.77038 5.35509 4.77741 5.43985H4.29541C4.26052 5.43983 4.22597 5.44669 4.19374 5.46003C4.1615 5.47337 4.13221 5.49294 4.10754 5.51761C4.08287 5.54228 4.06331 5.57157 4.04996 5.6038C4.03662 5.63604 4.02976 5.67059 4.02979 5.70548Z" fill="white"/>
</svg>
