<svg width="17" height="17" viewBox="0 0 17 17" fill="none" xmlns="http://www.w3.org/2000/svg">
<g clip-path="url(#clip0_46_2870)">
<path d="M6.37504 7.08333C4.42217 7.08333 2.83337 5.49454 2.83337 3.54167C2.83337 1.58879 4.42217 0 6.37504 0C8.32792 0 9.91671 1.58879 9.91671 3.54167C9.91671 5.49454 8.32792 7.08333 6.37504 7.08333ZM6.37504 0.708333C4.81246 0.708333 3.54171 1.97908 3.54171 3.54167C3.54171 5.10425 4.81246 6.375 6.37504 6.375C7.93762 6.375 9.20837 5.10425 9.20837 3.54167C9.20837 1.97908 7.93762 0.708333 6.37504 0.708333Z" fill="white"/>
<path d="M6.02083 14.875H0.354167C0.158667 14.875 0 14.7163 0 14.5208V11.6875C0 9.93012 1.43013 8.5 3.1875 8.5H7.4375C7.633 8.5 7.79167 8.65867 7.79167 8.85417C7.79167 9.04967 7.633 9.20833 7.4375 9.20833H3.1875C1.82042 9.20833 0.708333 10.3204 0.708333 11.6875V14.1667H6.02083C6.21633 14.1667 6.375 14.3253 6.375 14.5208C6.375 14.7163 6.21633 14.875 6.02083 14.875Z" fill="white"/>
<path d="M12.0417 14.1667C11.0656 14.1667 10.2709 13.3719 10.2709 12.3958C10.2709 11.4198 11.0656 10.625 12.0417 10.625C13.0178 10.625 13.8125 11.4198 13.8125 12.3958C13.8125 13.3719 13.0178 14.1667 12.0417 14.1667ZM12.0417 11.3333C11.4559 11.3333 10.9792 11.81 10.9792 12.3958C10.9792 12.9816 11.4559 13.4583 12.0417 13.4583C12.6275 13.4583 13.1042 12.9816 13.1042 12.3958C13.1042 11.81 12.6275 11.3333 12.0417 11.3333Z" fill="white"/>
<path d="M12.6062 17H11.4764C11.1109 17 10.8077 16.7259 10.7716 16.3618L10.6817 15.4615C10.467 15.3659 10.2623 15.2469 10.0689 15.1052L9.24161 15.4785C8.90941 15.6301 8.51911 15.5033 8.33707 15.1867L7.77253 14.2084C7.58978 13.8918 7.6762 13.4923 7.97228 13.2791L8.70116 12.7549C8.68699 12.6452 8.67707 12.5233 8.67707 12.3958C8.67707 12.2683 8.68699 12.1458 8.70116 12.0367L7.97228 11.5125C7.6762 11.2993 7.58978 10.8998 7.77253 10.5832L8.33707 9.60498C8.51982 9.28836 8.90799 9.16298 9.24161 9.31315L10.0689 9.68644C10.2623 9.54478 10.467 9.42577 10.6817 9.33015L10.7716 8.42986C10.8077 8.06648 11.1109 7.79236 11.4764 7.79236H12.6062C12.9717 7.79236 13.2749 8.06648 13.311 8.43057L13.4009 9.33086C13.6163 9.42648 13.821 9.54619 14.0137 9.68715L14.841 9.31386C15.1746 9.1644 15.5635 9.28977 15.7455 9.60569L16.3101 10.5839C16.4928 10.9005 16.4064 11.3 16.1103 11.5132L15.3814 12.0374C15.3956 12.1472 15.4055 12.269 15.4055 12.3965C15.4055 12.524 15.3956 12.6466 15.3814 12.7556L16.1103 13.2798C16.4064 13.493 16.4928 13.8925 16.3101 14.2091L15.7462 15.1867C15.5635 15.5026 15.176 15.6294 14.8417 15.4785L14.0144 15.1052C13.821 15.2469 13.6163 15.3659 13.4017 15.4615L13.311 16.3625C13.2749 16.7259 12.9717 17 12.6062 17ZM10.1185 14.3402C10.2 14.3402 10.2807 14.3685 10.3459 14.4231C10.586 14.6242 10.8517 14.7779 11.1343 14.8814C11.2618 14.9281 11.3517 15.0436 11.3652 15.1789L11.4771 16.2916H12.6069L12.7181 15.1789C12.7316 15.0436 12.8215 14.9281 12.949 14.8814C13.2317 14.7779 13.4973 14.6235 13.7374 14.4231C13.8422 14.3359 13.9867 14.3161 14.11 14.3721L15.1328 14.8339L15.6974 13.8557L14.7921 13.2054C14.6816 13.1261 14.6271 12.9901 14.6497 12.8562C14.6759 12.7068 14.6972 12.5545 14.6972 12.3972C14.6972 12.24 14.6759 12.0877 14.6497 11.9382C14.6264 11.8044 14.6816 11.6691 14.7921 11.589L15.6974 10.9388L15.1328 9.96057L14.11 10.4217C13.986 10.4777 13.8415 10.4578 13.7367 10.3707C13.4973 10.1695 13.2324 10.0158 12.9483 9.9124C12.8208 9.86565 12.7309 9.75019 12.7174 9.6149L12.6062 8.49998H11.4764L11.3652 9.61277C11.3517 9.74807 11.2618 9.86352 11.1343 9.91027C10.8517 10.0137 10.586 10.1681 10.3459 10.3686C10.2418 10.4557 10.0973 10.4762 9.97332 10.4196L8.95049 9.95773L8.38595 10.9359L9.2912 11.5862C9.4017 11.6655 9.45624 11.8015 9.43357 11.9354C9.40736 12.0849 9.38611 12.2371 9.38611 12.3944C9.38611 12.5516 9.40736 12.7039 9.43357 12.8534C9.45695 12.9873 9.4017 13.1226 9.2912 13.2026L8.38595 13.8529L8.95049 14.8311L9.97332 14.3699C10.0201 14.3501 10.0689 14.3402 10.1185 14.3402Z" fill="white"/>
</g>
<defs>
<clipPath id="clip0_46_2870">
<rect width="17" height="17" fill="white"/>
</clipPath>
</defs>
</svg>
