<svg width="17" height="17" viewBox="0 0 17 17" fill="none" xmlns="http://www.w3.org/2000/svg">
<path fill-rule="evenodd" clip-rule="evenodd" d="M0.540001 11.9502C0.830001 11.9502 1.06 12.1802 1.06 12.4702V13.6602C1.06 14.1502 1.26 14.6202 1.6 14.9702C1.95 15.3202 2.42 15.5102 2.91 15.5102H13.59C14.08 15.5102 14.55 15.3102 14.9 14.9702C15.25 14.6302 15.44 14.1502 15.44 13.6602V12.4702C15.44 12.1802 15.67 11.9502 15.96 11.9502C16.25 11.9502 16.48 12.1802 16.48 12.4702V13.6602C16.48 14.4302 16.18 15.1602 15.63 15.7102C15.08 16.2602 14.35 16.5602 13.58 16.5602H2.9C2.13 16.5602 1.4 16.2602 0.850002 15.7102C0.310002 15.1702 0 14.4302 0 13.6602V12.4702C0 12.1802 0.23 11.9502 0.52 11.9502H0.540001Z" fill="#747474"/>
<path fill-rule="evenodd" clip-rule="evenodd" d="M12.9488 10.5563C12.9488 10.8038 12.7514 11 12.5025 11C12.2537 11 12.0563 10.8038 12.0563 10.5563V2.63823L9.7822 5.27474C9.61915 5.46246 9.34455 5.47952 9.15575 5.32594C8.96696 5.17235 8.9498 4.89079 9.10427 4.70307L12.1507 1.16211C12.2365 1.05973 12.3566 1 12.494 1C12.6313 1 12.7514 1.05973 12.8372 1.16211L15.8922 4.70307C16.0553 4.89079 16.0295 5.17235 15.8407 5.32594C15.6519 5.48805 15.3688 5.46246 15.2143 5.27474L12.9402 2.63823V10.5563H12.9488Z" fill="#747474"/>
<path fill-rule="evenodd" clip-rule="evenodd" d="M4.94877 10.5563C4.94877 10.8038 4.7514 11 4.50253 11C4.25367 11 4.0563 10.8038 4.0563 10.5563L4.0563 2.63823L1.7822 5.27474C1.61915 5.46246 1.34455 5.47952 1.15575 5.32594C0.966962 5.17235 0.949799 4.89079 1.10427 4.70307L4.15069 1.16211C4.23651 1.05973 4.35665 1 4.49395 1C4.63125 1 4.7514 1.05973 4.83721 1.16211L7.89222 4.70307C8.05527 4.89079 8.02952 5.17235 7.84073 5.32594C7.65194 5.48805 7.36875 5.46246 7.21428 5.27474L4.94019 2.63823L4.94019 10.5563H4.94877Z" fill="#747474"/>
</svg>
