<svg width="17" height="17" viewBox="0 0 17 17" fill="none" xmlns="http://www.w3.org/2000/svg">
<path fill-rule="evenodd" clip-rule="evenodd" d="M0.540001 11.9502C0.830001 11.9502 1.06 12.1802 1.06 12.4702V13.6602C1.06 14.1502 1.26 14.6202 1.6 14.9702C1.95 15.3202 2.42 15.5102 2.91 15.5102H13.59C14.08 15.5102 14.55 15.3102 14.9 14.9702C15.25 14.6302 15.44 14.1502 15.44 13.6602V12.4702C15.44 12.1802 15.67 11.9502 15.96 11.9502C16.25 11.9502 16.48 12.1802 16.48 12.4702V13.6602C16.48 14.4302 16.18 15.1602 15.63 15.7102C15.08 16.2602 14.35 16.5602 13.58 16.5602H2.9C2.13 16.5602 1.4 16.2602 0.850002 15.7102C0.310002 15.1702 0 14.4302 0 13.6602V12.4702C0 12.1802 0.23 11.9502 0.52 11.9502H0.540001Z" fill="#747474"/>
<path fill-rule="evenodd" clip-rule="evenodd" d="M8.7757 11.2002C8.7757 11.4902 8.5457 11.7202 8.2557 11.7202C7.9657 11.7202 7.7357 11.4902 7.7357 11.2002L7.7357 1.92022L5.0857 5.01022C4.8957 5.23022 4.5757 5.25022 4.3557 5.07022C4.1357 4.89022 4.1157 4.56022 4.2957 4.34022L7.8457 0.190214C7.9457 0.0702143 8.0857 0.00021553 8.2457 0.00021553C8.4057 0.00021553 8.5457 0.0702143 8.6457 0.190214L12.2057 4.34022C12.3957 4.56022 12.3657 4.89022 12.1457 5.07022C11.9257 5.26022 11.5957 5.23022 11.4157 5.01022L8.7657 1.92022L8.7657 11.2002H8.7757Z" fill="#747474"/>
</svg>
